<svg width="43" height="25" viewBox="0 0 43 25" fill="none" xmlns="http://www.w3.org/2000/svg">
<path d="M35.104 8.07223C34.0361 8.75621 32.9909 9.37178 32.0139 10.0558C31.8094 10.1926 31.673 10.6257 31.7185 10.8765C32.2638 13.9316 32.8546 16.9639 33.468 20.247C34.4451 20.247 35.672 20.247 36.899 20.247C37.6488 20.247 38.3532 20.3382 38.3759 21.2502C38.4214 22.2533 37.6716 22.3673 36.8763 22.3673C35.8993 22.3673 34.8995 22.3217 33.9225 22.4129C33.6498 22.4357 33.2181 22.7549 33.1954 22.9829C33.0818 23.7581 32.9909 24.5105 31.9911 24.4421C30.9914 24.3737 31.0141 23.5529 30.9914 22.8233C30.9914 22.7093 30.9232 22.6181 30.8778 22.4585C30.128 22.2761 28.9237 22.6409 28.9464 21.2958C28.9692 20.0646 30.0825 20.361 31.1504 20.133C30.696 17.2147 30.2188 14.2964 29.7871 11.4693C27.3332 11.9481 25.1746 12.3357 23.0388 12.7917C22.8116 12.8373 22.5844 13.316 22.5616 13.6124C22.4935 14.6384 22.5389 15.6644 22.5389 16.6903C22.5389 17.3743 22.3799 18.0355 21.5164 18.0583C20.6076 18.0811 20.4031 17.4199 20.4031 16.6675C20.4031 15.4136 20.4031 14.1824 20.4031 12.9969C18.0173 12.4725 15.7451 11.9709 13.1776 11.4009C12.7231 14.2736 12.246 17.1691 11.7916 20.0874C12.7459 20.4294 13.9956 19.9962 13.9956 21.3186C13.9956 22.6409 12.7913 22.2533 11.9961 22.4813C11.9733 22.8461 12.0642 23.2793 11.8824 23.5073C11.6098 23.8949 11.2008 24.3509 10.7918 24.3965C10.4964 24.4193 9.88293 23.8493 9.88293 23.5301C9.88293 22.4129 9.29217 22.3673 8.42875 22.3673C6.22474 22.4129 4.04346 22.3901 1.83946 22.3673C0.498878 22.3673 0.203495 22.0937 0.27166 20.7486C0.567042 13.4528 3.70263 7.61624 9.7466 3.60358C21.062 -3.89736 35.9447 0.776479 41.1025 13.316C42.0796 15.6872 42.6022 18.1723 42.6476 20.7486C42.6703 21.5238 42.6249 22.2989 41.6251 22.3217C40.6481 22.3445 40.5572 21.5694 40.5118 20.7942C40.33 15.9152 38.1942 10.8537 35.104 8.07223ZM9.47394 20.1786C10.0874 16.9639 10.6782 13.8632 11.2462 10.7397C11.2917 10.5345 11.1326 10.2154 10.9736 10.1014C9.9511 9.41738 8.88318 8.75621 7.7471 8.04943C4.49789 11.4237 2.79377 15.4592 2.4075 20.1786C4.88416 20.1786 7.29266 20.1786 9.47394 20.1786ZM20.2895 10.7625C20.2895 7.77584 20.2895 5.13113 20.2895 2.46362C17.8582 2.62322 14.6545 7.04626 14.2682 9.46298C16.2223 9.87337 18.1763 10.3066 20.2895 10.7625ZM28.8783 9.39458C27.4014 6.22549 25.9472 3.51239 22.6298 2.34963C22.6298 5.19953 22.6298 7.86704 22.6298 10.7853C24.7202 10.3066 26.6743 9.87337 28.8783 9.39458ZM12.0188 8.25462C12.9958 6.59028 13.882 5.08553 14.7454 3.58078C14.6772 3.48959 14.6318 3.39839 14.5636 3.30719C12.8595 4.28756 11.1553 5.29072 9.20128 6.40789C10.3601 7.16026 11.1553 7.68464 12.0188 8.25462ZM30.9005 8.27742C31.7639 7.68464 32.5819 7.13746 33.6725 6.38509C31.7185 5.26793 30.0143 4.28756 28.3329 3.30719C28.2648 3.39839 28.2193 3.48959 28.1512 3.58078C29.0373 5.10833 29.9235 6.61308 30.9005 8.27742Z" fill="#00B9FF"/>
<path d="M20.4713 22.2297C20.4713 21.6372 20.4713 21.0219 20.4713 20.3154C21.1302 20.3154 21.7437 20.3154 22.3572 20.3154C22.8116 22.3209 22.5389 22.6172 20.4713 22.2297Z" fill="#00B9FF"/>
<path d="M18.1991 22.2755C16.0633 22.549 15.9269 22.4122 16.2677 20.3384C16.8812 20.3384 17.4947 20.3384 18.1991 20.3384C18.1991 20.9537 18.1991 21.569 18.1991 22.2755Z" fill="#00B9FF"/>
<path d="M24.6748 22.2983C24.6748 21.6374 24.6748 21.0448 24.6748 20.3384C25.311 20.3384 25.9699 20.3384 26.6061 20.3384C26.9924 22.4122 26.9242 22.5034 24.6748 22.2983Z" fill="#00B9FF"/>
</svg>
