<svg width="46" height="50" viewBox="0 0 46 50" fill="none" xmlns="http://www.w3.org/2000/svg">
<path d="M38.5795 25.9766C38.9975 27.3323 40.262 28.3203 41.753 28.3203C43.5839 28.3203 45.0733 26.8309 45.0733 25C45.0733 23.1691 43.5838 21.6797 41.753 21.6797C40.2619 21.6797 38.9974 22.6677 38.5795 24.0234H32.5703V16.4062C32.5703 15.867 32.1331 15.4297 31.5937 15.4297H30.0312V9.56738H35.5021C36.0415 9.56738 36.4787 9.13008 36.4787 8.59082C36.4787 8.05156 36.0415 7.61426 35.5021 7.61426H29.0547C28.5153 7.61426 28.0781 8.05156 28.0781 8.59082V15.4297H23.9765V9.42061C25.3322 9.00254 26.3203 7.73818 26.3203 6.24707C26.3203 4.41621 24.8308 2.92676 23 2.92676C21.1691 2.92676 19.6797 4.41621 19.6797 6.24707C19.6797 7.73818 20.6678 9.00264 22.0234 9.42061V15.4297H14.4062C13.8669 15.4297 13.4297 15.867 13.4297 16.4062V17.9688H7.56726V6.49473C8.92449 6.07764 9.91404 4.8125 9.91404 3.32031C9.91404 1.48945 8.42459 0 6.59373 0C4.76287 0 3.27341 1.48945 3.27341 3.32031C3.27341 4.81035 4.26003 6.07402 5.61414 6.49297V18.9453C5.61414 19.4846 6.05134 19.9219 6.5907 19.9219H13.4297V24.0234H7.42048C7.00242 22.6677 5.73796 21.6797 4.24695 21.6797C2.41609 21.6797 0.926636 23.1691 0.926636 25C0.926636 26.8309 2.41609 28.3203 4.24695 28.3203C5.73806 28.3203 7.00252 27.3323 7.42048 25.9766H13.4297V33.5938C13.4297 34.133 13.8669 34.5703 14.4062 34.5703H15.9687V40.4326H10.4978C9.95847 40.4326 9.52126 40.8699 9.52126 41.4092C9.52126 41.9484 9.95847 42.3857 10.4978 42.3857H16.9453C17.4846 42.3857 17.9219 41.9484 17.9219 41.4092V34.5703H22.0234V40.5794C20.6678 40.9975 19.6797 42.2618 19.6797 43.7529C19.6797 45.5838 21.1691 47.0732 23 47.0732C24.8308 47.0732 26.3203 45.5838 26.3203 43.7529C26.3203 42.2618 25.3322 40.9974 23.9765 40.5794V34.5703H31.5937C32.1331 34.5703 32.5703 34.133 32.5703 33.5938V32.0312H38.4327V43.5053C37.0755 43.9224 36.0859 45.1875 36.0859 46.6797C36.0859 48.5105 37.5754 50 39.4062 50C41.2371 50 42.7265 48.5105 42.7265 46.6797C42.7265 45.1896 41.7399 43.926 40.3858 43.507V31.0547C40.3858 30.5154 39.9486 30.0781 39.4093 30.0781H32.5703V25.9766H38.5795ZM41.753 23.6328C42.5069 23.6328 43.1202 24.2461 43.1202 25C43.1202 25.7539 42.5068 26.3672 41.753 26.3672C40.9991 26.3672 40.3858 25.7539 40.3858 25C40.3858 24.2461 40.9991 23.6328 41.753 23.6328ZM6.59373 4.6875C5.83982 4.6875 5.22654 4.07422 5.22654 3.32031C5.22654 2.56641 5.83982 1.95312 6.59373 1.95312C7.34763 1.95312 7.96091 2.56641 7.96091 3.32031C7.96091 4.07422 7.34763 4.6875 6.59373 4.6875ZM4.24695 26.3672C3.49304 26.3672 2.87976 25.7539 2.87976 25C2.87976 24.2461 3.49304 23.6328 4.24695 23.6328C5.00085 23.6328 5.61414 24.2461 5.61414 25C5.61414 25.7539 5.00085 26.3672 4.24695 26.3672ZM21.6328 6.24707C21.6328 5.49316 22.2461 4.87988 23 4.87988C23.7539 4.87988 24.3672 5.49316 24.3672 6.24707C24.3672 7.00098 23.7539 7.61426 23 7.61426C22.2461 7.61426 21.6328 7.00098 21.6328 6.24707ZM24.3672 43.7529C24.3672 44.5068 23.7539 45.1201 23 45.1201C22.2461 45.1201 21.6328 44.5068 21.6328 43.7529C21.6328 42.999 22.2461 42.3857 23 42.3857C23.7539 42.3857 24.3672 42.999 24.3672 43.7529ZM30.6172 32.6172H15.3828V17.3828H30.6172V32.6172ZM39.4062 45.3125C40.1601 45.3125 40.7734 45.9258 40.7734 46.6797C40.7734 47.4336 40.1601 48.0469 39.4062 48.0469C38.6523 48.0469 38.039 47.4336 38.039 46.6797C38.039 45.9258 38.6523 45.3125 39.4062 45.3125Z" fill="white"/>
</svg>
