<svg width="50" height="50" viewBox="0 0 50 50" fill="none" xmlns="http://www.w3.org/2000/svg">
<path d="M14.4275 36.4513C22.5151 36.3992 28.9461 29.9114 28.9069 21.8213C28.8678 13.9135 22.3064 7.49093 14.297 7.53001C6.36592 7.58212 -0.0389553 14.135 0.000178378 22.147C0.0393121 30.0157 6.57464 36.5034 14.4275 36.4513Z" fill="white"/>
<path d="M31.6202 49.9999C32.1811 49.9478 32.755 49.9217 33.316 49.8436C40.047 48.8926 44.5212 42.3266 42.982 35.6956C42.8385 35.0963 42.4733 34.8097 42.0036 34.9269C41.521 35.0442 41.3253 35.448 41.4688 36.0473C41.7558 37.2849 41.808 38.5226 41.6254 39.7862C40.9862 44.2156 37.5294 47.7201 33.1464 48.3584C28.6982 49.0098 24.3804 46.6909 22.489 42.6263C21.7715 41.089 21.4715 39.4736 21.5759 37.793C21.615 37.0504 21.3671 36.6726 20.8323 36.6466C20.3105 36.6336 20.0366 36.9723 20.0105 37.7279C19.9975 38.3272 19.9844 38.9394 20.0366 39.5257C20.6627 45.4663 25.6197 49.9348 31.6202 49.9999Z" fill="white"/>
<path d="M39.6948 27.2148C40.8166 28.2701 42.0819 28.5958 43.4907 27.9053C44.6387 27.3321 45.2257 26.3159 45.1735 25.0392C45.1083 23.4498 44.1951 22.4728 42.682 22.0298C43.0603 20.4795 42.682 19.1898 41.2993 18.343C40.1905 17.6656 39.0034 17.7047 37.9338 18.4342C36.6684 19.294 36.3423 20.5447 36.6945 22.0168C35.1683 22.4728 34.2422 23.4629 34.203 25.0653C34.1639 26.3811 34.8031 27.3972 36.0162 27.9444C37.3989 28.5827 38.6251 28.244 39.6948 27.2148Z" fill="white"/>
<path d="M31.6593 46.9386C31.9333 46.7041 32.2202 46.5347 32.3898 46.3002C33.3421 44.9323 34.2161 43.4863 35.2335 42.1574C35.8988 41.2976 35.9379 40.5681 35.4683 39.591C34.3987 37.3372 33.4464 35.0183 32.455 32.7255C32.2985 32.3607 32.0637 32.1132 31.6724 32.1001C31.281 32.0871 31.0201 32.3216 30.8636 32.6864C29.7548 35.2528 28.633 37.8062 27.5111 40.3596C27.3677 40.6983 27.3416 41.011 27.5503 41.3237C28.6982 43.0173 29.8331 44.7239 30.994 46.4175C31.1114 46.6129 31.3723 46.7171 31.6593 46.9386Z" fill="white"/>
<path d="M31.2419 5.05467C31.1375 5.0677 31.0854 5.08073 31.0332 5.09376C29.4678 5.27614 28.5286 6.34441 28.5939 7.82956C28.646 9.00204 29.7157 10.2657 31.3202 10.1745C31.855 10.1485 32.3898 10.1485 32.9246 10.1745C33.5116 10.2136 33.903 10.6696 33.8769 11.2037C33.8508 11.7378 33.4595 12.1026 32.8725 12.1156C32.4029 12.1287 31.9333 12.1156 31.4637 12.1156C30.5375 12.1156 30.3418 11.9593 30.1462 11.0604C30.0418 10.6044 29.6896 10.3178 29.2852 10.3699C28.8547 10.4221 28.6069 10.7477 28.6069 11.2298C28.6069 12.4283 29.5852 13.5096 30.7984 13.6529C30.9419 13.6659 31.0854 13.692 31.2549 13.718C31.2549 14.1219 31.2549 14.4867 31.2549 14.8645C31.268 15.4116 31.555 15.7503 32.0115 15.7634C32.4811 15.7764 32.8072 15.4116 32.8072 14.8514C32.8203 14.4736 32.8072 14.0828 32.8072 13.7311C32.9246 13.705 32.9507 13.692 32.9768 13.692C34.5291 13.5226 35.5336 12.4283 35.4422 10.9822C35.364 9.60131 34.2291 8.61121 32.729 8.59819C32.2202 8.59819 31.7245 8.61121 31.2158 8.59819C30.5636 8.58516 30.1592 8.22038 30.1592 7.63414C30.1462 7.03487 30.5636 6.64404 31.2419 6.63102C31.7115 6.61799 32.1811 6.63102 32.6507 6.63102C33.4595 6.63102 33.7464 6.87854 33.8899 7.68625C33.9682 8.14222 34.2943 8.4158 34.7378 8.38974C35.1683 8.35066 35.4553 8.02497 35.4422 7.55598C35.4292 6.82643 35.1683 6.14899 34.5683 5.73211C34.0726 5.38036 33.4595 5.18495 32.8072 4.88531C32.8072 4.63779 32.8203 4.23393 32.8072 3.83008C32.7812 3.322 32.4681 3.00934 32.0115 3.02236C31.555 3.02236 31.268 3.34805 31.2549 3.85613C31.2419 4.24696 31.2419 4.63779 31.2419 5.05467Z" fill="white"/>
<path d="M50 24.2314C49.9087 24.7135 49.8174 25.1825 49.713 25.6645C48.6042 30.4586 44.1169 33.8588 39.2382 33.5983C34.1508 33.3247 30.0679 29.5337 29.4678 24.5441C29.3244 23.3325 29.3504 22.134 29.6766 20.9615C29.7548 20.701 30.0288 20.4013 30.2766 20.2971C30.7984 20.0887 31.2941 20.6488 31.1636 21.2611C30.8636 22.6812 30.8767 24.1012 31.2419 25.5212C32.2463 29.4425 36.0032 32.2174 40.06 32.048C44.1821 31.8656 47.6781 28.8041 48.3433 24.7916C49.0608 20.4274 46.6606 16.4149 42.4602 14.9558C42.0167 14.7994 41.6776 14.578 41.7167 14.0699C41.7428 13.5097 42.2646 13.2492 42.8907 13.4446C44.443 13.9396 45.7866 14.7604 46.9345 15.9068C48.6042 17.5743 49.5956 19.5806 49.9087 21.9125C49.9217 22.0037 49.9609 22.0949 50 22.1861C50 22.8635 50 23.554 50 24.2314Z" fill="#00B9FF"/>
<path d="M32.9116 0C33.6682 0.182387 34.4378 0.312663 35.1683 0.573215C39.2904 2.03231 41.7558 6.04482 41.3123 10.5263C40.9079 14.604 37.5685 18.0433 33.4073 18.6816C32.2855 18.851 31.1767 18.8379 30.0679 18.5904C29.6505 18.4992 29.4026 18.2517 29.4026 17.8218C29.3896 17.3137 29.794 16.988 30.3679 17.0792C31.555 17.2746 32.729 17.2877 33.903 17.001C37.399 16.1803 39.9166 12.8713 39.8383 9.24961C39.747 5.57582 37.0859 2.41011 33.5378 1.7457C29.3113 0.964044 25.3719 3.54351 24.4066 7.73841C24.3805 7.85565 24.3544 7.95988 24.3283 8.0641C24.1979 8.53309 23.7935 8.78061 23.363 8.67639C22.9717 8.5852 22.6716 8.16832 22.8151 7.72538C23.1021 6.78739 23.3369 5.79729 23.7935 4.93747C25.2806 2.16259 27.6416 0.54716 30.7854 0.0781657C30.8767 0.0651381 30.968 0.0260552 31.0593 0C31.6724 0 32.2985 0 32.9116 0Z" fill="#00B9FF"/>
<path d="M14.4275 36.4512C6.57464 36.5033 0.0393121 30.0156 0.000178378 22.1469C-0.0389553 14.1349 6.36592 7.58204 14.297 7.54296C22.3064 7.50387 28.8678 13.9265 28.9069 21.8343C28.9461 29.9244 22.5151 36.4122 14.4275 36.4512ZM14.4014 34.8879C21.6933 34.8488 27.3807 29.0646 27.3416 21.7431C27.3024 14.7342 21.4063 8.97599 14.3101 9.01508C7.17469 9.06719 1.43508 14.9036 1.47421 22.0818C1.51335 29.1427 7.35731 34.927 14.4014 34.8879Z" fill="#00B9FF"/>
<path d="M31.6202 50.0002C25.6197 49.922 20.6628 45.4665 20.0497 39.526C19.9844 38.9267 19.9975 38.3274 20.0236 37.7281C20.0366 36.9725 20.3236 36.6208 20.8454 36.6469C21.3802 36.6729 21.6281 37.0377 21.5889 37.7933C21.4976 39.4869 21.7976 41.1023 22.502 42.6265C24.3935 46.6911 28.7113 49.0101 33.1595 48.3587C37.5424 47.7203 40.9992 44.2159 41.6384 39.7865C41.821 38.5359 41.7558 37.2852 41.4819 36.0476C41.3514 35.4483 41.5341 35.0445 42.0167 34.9272C42.4733 34.81 42.8516 35.1096 42.9951 35.6958C44.5343 42.3269 40.06 48.8928 33.329 49.8438C32.7551 49.922 32.1811 49.9481 31.6202 50.0002Z" fill="#00B9FF"/>
<path d="M39.6948 27.2147C38.6251 28.2569 37.3989 28.5826 36.0292 27.9573C34.8161 27.3971 34.19 26.3809 34.2161 25.0782C34.2552 23.4758 35.1814 22.4857 36.7076 22.0297C36.3423 20.5576 36.6815 19.307 37.9468 18.4471C39.0164 17.7176 40.2035 17.6655 41.3123 18.3559C42.695 19.2027 43.0733 20.4925 42.695 22.0427C44.2082 22.4987 45.1213 23.4758 45.1865 25.0521C45.2387 26.3288 44.6517 27.332 43.5038 27.9182C42.0819 28.5956 40.8166 28.2699 39.6948 27.2147ZM39.6948 22.6029C40.5687 22.6029 41.2862 21.9125 41.2992 21.0396C41.3123 20.1798 40.5948 19.4633 39.7339 19.4503C38.873 19.4372 38.1425 20.1537 38.1425 21.0136C38.1294 21.8994 38.8208 22.6029 39.6948 22.6029ZM37.3598 26.6936C38.2338 26.6806 38.9251 25.9771 38.9121 25.1042C38.899 24.2184 38.1946 23.5409 37.3207 23.554C36.4597 23.567 35.7423 24.2835 35.7553 25.1433C35.7684 26.0031 36.4858 26.6936 37.3598 26.6936ZM42.0689 26.6806C42.9168 26.6806 43.6212 25.9771 43.6342 25.1303C43.6473 24.2705 42.9298 23.5409 42.0689 23.5409C41.1949 23.5409 40.4905 24.2314 40.4905 25.1042C40.4905 25.9901 41.1949 26.6806 42.0689 26.6806Z" fill="#00B9FF"/>
<path d="M31.6593 46.9386C31.3724 46.7301 31.1115 46.6129 30.981 46.4175C29.8201 44.7239 28.6852 43.0303 27.5372 41.3237C27.3285 41.011 27.3546 40.6983 27.4981 40.3596C28.6199 37.8062 29.7418 35.2398 30.8506 32.6864C31.0071 32.3216 31.268 32.0871 31.6593 32.1001C32.0637 32.1132 32.2855 32.3607 32.442 32.7255C33.4334 35.0183 34.3857 37.3372 35.4553 39.591C35.9249 40.5681 35.8858 41.2846 35.2205 42.1574C34.203 43.4863 33.3421 44.9193 32.3768 46.3002C32.2203 46.5347 31.9333 46.691 31.6593 46.9386ZM34.0726 40.3857C33.2508 38.4967 32.4681 36.6989 31.6332 34.7838C30.7984 36.7119 30.0027 38.5358 29.1939 40.3857C29.9896 40.6593 30.7071 40.9068 31.4245 41.1413C31.5289 41.1804 31.6593 41.1934 31.7506 41.1543C32.5203 40.9068 33.2638 40.6593 34.0726 40.3857ZM30.2505 42.3398C30.2244 42.3789 30.1983 42.431 30.1853 42.4701C30.6549 43.1736 31.1376 43.8771 31.6463 44.6197C32.1681 43.851 32.6377 43.1606 33.1073 42.4571C33.0812 42.418 33.0682 42.3789 33.0421 42.3398C32.1029 42.874 31.1767 42.9 30.2505 42.3398Z" fill="#00B9FF"/>
<path d="M31.2419 5.05477C31.2419 4.63789 31.2289 4.24706 31.2419 3.85623C31.255 3.34815 31.555 3.03549 31.9985 3.02246C32.4551 3.02246 32.7681 3.33512 32.7942 3.83017C32.8073 4.23403 32.7942 4.63789 32.7942 4.88541C33.4464 5.19807 34.0595 5.39349 34.5552 5.73221C35.1553 6.14909 35.4162 6.82653 35.4292 7.55607C35.4423 8.02507 35.1422 8.36379 34.7248 8.38984C34.2943 8.42893 33.9552 8.15535 33.8769 7.68635C33.7334 6.87864 33.4464 6.63111 32.6377 6.63111C32.1681 6.63111 31.6985 6.61809 31.2289 6.63111C30.5636 6.64414 30.1462 7.03497 30.1462 7.63424C30.1592 8.20746 30.5506 8.58526 31.2028 8.59828C31.7115 8.61131 32.2072 8.59828 32.7159 8.59828C34.2161 8.61131 35.3509 9.60141 35.4292 10.9823C35.5075 12.4414 34.5161 13.5358 32.9638 13.6921C32.9377 13.6921 32.8986 13.7051 32.7942 13.7312C32.7942 14.0959 32.8073 14.4737 32.7942 14.8515C32.7812 15.4117 32.4551 15.7765 31.9985 15.7635C31.5419 15.7505 31.255 15.4117 31.2419 14.8646C31.2419 14.4868 31.2419 14.122 31.2419 13.7181C31.0723 13.6921 30.9288 13.6791 30.7854 13.653C29.5722 13.5097 28.5939 12.4284 28.5939 11.2299C28.5939 10.7478 28.8548 10.4222 29.2722 10.37C29.6766 10.3179 30.0418 10.6045 30.1331 11.0605C30.3288 11.9724 30.5245 12.1157 31.4506 12.1157C31.9202 12.1157 32.3898 12.1288 32.8594 12.1157C33.4464 12.1027 33.8378 11.7379 33.8639 11.2038C33.89 10.6566 33.4986 10.2007 32.9116 10.1746C32.3768 10.1355 31.842 10.1355 31.3071 10.1746C29.7027 10.2658 28.633 8.98911 28.5808 7.82965C28.5156 6.34451 29.4548 5.27624 31.0202 5.09385C31.0854 5.08083 31.1376 5.0678 31.2419 5.05477Z" fill="#00B9FF"/>
<path d="M14.4014 34.8879C7.3573 34.927 1.50029 29.1297 1.4742 22.0688C1.43506 14.9036 7.17467 9.0672 14.31 9.01509C21.3932 8.97601 27.3024 14.7342 27.3416 21.7431C27.3807 29.0646 21.6933 34.8488 14.4014 34.8879ZM15.5232 29.1297C15.5232 29.5596 15.5101 29.9635 15.5232 30.3673C15.5362 30.8494 15.8232 31.162 16.2537 31.1751C16.7102 31.2011 17.0364 30.8884 17.0755 30.3934C17.1016 30.1198 17.1016 29.8332 17.0755 29.5596C17.0364 29.1688 17.1538 28.9734 17.5581 28.8431C19.3713 28.2308 20.4279 26.407 20.141 24.531C19.9844 23.4888 19.4496 22.655 18.6539 21.9776C21.315 19.6847 20.3105 15.7113 17.0755 14.8775C17.0755 14.4867 17.0885 14.0698 17.0755 13.6659C17.0494 13.1579 16.7494 12.8452 16.2928 12.8452C15.8363 12.8452 15.5362 13.1579 15.5232 13.6659C15.5101 14.0307 15.5232 14.4085 15.5232 14.7994C14.9623 14.7994 14.4535 14.7994 13.9057 14.7994C13.9057 14.4346 13.9057 14.0959 13.9057 13.7571C13.8926 13.1709 13.6056 12.8452 13.123 12.8582C12.6534 12.8713 12.3664 13.1839 12.3534 13.7441C12.3403 14.0959 12.3534 14.4476 12.3534 14.8515C11.8055 14.8515 11.3228 14.8515 10.8402 14.8515C10.1358 14.8645 9.8749 15.125 9.8749 15.8285C9.8749 19.9192 9.8749 23.9968 9.8749 28.0875C9.8749 28.8301 10.1358 29.0906 10.8663 29.0906C11.3489 29.0906 11.8316 29.0906 12.3403 29.0906C12.3403 29.3382 12.3403 29.5205 12.3403 29.6899C12.3403 29.8853 12.3403 30.0807 12.3403 30.2762C12.3664 30.8494 12.6664 31.1751 13.1621 31.162C13.6317 31.149 13.8926 30.8233 13.9057 30.2631C13.9187 29.8853 13.9057 29.4945 13.9057 29.1167C14.4796 29.1297 14.9753 29.1297 15.5232 29.1297Z" fill="white"/>
<path d="M15.5232 29.1299C14.9753 29.1299 14.4796 29.1299 13.8926 29.1299C13.8926 29.5077 13.8926 29.8985 13.8926 30.2763C13.8796 30.8495 13.6187 31.1622 13.1491 31.1752C12.6664 31.1883 12.3534 30.8626 12.3273 30.2894C12.3142 30.0939 12.3273 29.8985 12.3273 29.7031C12.3273 29.5207 12.3273 29.3514 12.3273 29.1038C11.8185 29.1038 11.3359 29.1038 10.8532 29.1038C10.1227 29.0908 9.86185 28.8303 9.86185 28.1007C9.86185 24.01 9.86185 19.9324 9.86185 15.8417C9.86185 15.1382 10.1358 14.8647 10.8271 14.8647C11.3098 14.8647 11.7924 14.8647 12.3403 14.8647C12.3403 14.4738 12.3273 14.1091 12.3403 13.7573C12.3534 13.1971 12.6403 12.8845 13.1099 12.8714C13.5926 12.8584 13.8796 13.1841 13.8926 13.7703C13.9057 14.109 13.8926 14.4478 13.8926 14.8125C14.4405 14.8125 14.9492 14.8125 15.5101 14.8125C15.5101 14.4217 15.4971 14.0569 15.5101 13.6791C15.5232 13.1711 15.8232 12.8584 16.2798 12.8584C16.7363 12.8584 17.0494 13.158 17.0625 13.6791C17.0755 14.083 17.0625 14.4869 17.0625 14.8907C20.2975 15.7245 21.315 19.6979 18.6408 21.9908C19.4366 22.6682 19.9583 23.4889 20.1279 24.5442C20.4149 26.4201 19.3583 28.244 17.5451 28.8563C17.1277 28.9996 17.0233 29.182 17.0625 29.5728C17.0885 29.8464 17.0755 30.133 17.0625 30.4066C17.0233 30.9017 16.6972 31.2013 16.2406 31.1883C15.8102 31.1752 15.5232 30.8626 15.5101 30.3805C15.5101 29.9637 15.5232 29.5598 15.5232 29.1299ZM11.4402 21.1961C13.0708 21.1961 14.6492 21.2091 16.2276 21.1961C17.5842 21.183 18.6408 20.1539 18.6539 18.8381C18.6669 17.4962 17.6234 16.441 16.2276 16.428C14.9623 16.4149 13.6839 16.428 12.4186 16.428C12.0925 16.428 11.7794 16.428 11.4402 16.428C11.4402 18.0304 11.4402 19.5806 11.4402 21.1961ZM11.4272 27.5405C13.0317 27.5405 14.597 27.5536 16.1493 27.5405C17.5712 27.5275 18.6278 26.4853 18.6278 25.1434C18.6278 23.8016 17.5451 22.7724 16.1232 22.7724C14.6883 22.7724 13.2665 22.7724 11.8316 22.7724C11.6881 22.7724 11.5576 22.7854 11.4142 22.7985C11.4272 24.3878 11.4272 25.9251 11.4272 27.5405Z" fill="#00B9FF"/>
</svg>
